<svg width="25" height="24" viewBox="0 0 25 24" fill="none" xmlns="http://www.w3.org/2000/svg">
<g clip-path="url(#clip0_111_2676)">
<path d="M24.5 14.25C24.5 13.649 24.261 13.089 23.849 12.676C24.316 12.165 24.554 11.48 24.489 10.767C24.372 9.49598 23.227 8.49998 21.881 8.49998H15.704C16.01 7.57097 16.5 5.868 16.5 4.5C16.5 2.331 14.657 0.500015 13.5 0.500015C12.462 0.500015 11.719 1.08502 11.688 1.10902C11.569 1.20403 11.5 1.34803 11.5 1.5V4.89098L8.61898 11.13L8.49997 11.191V11C8.49997 10.724 8.27595 10.5 7.99995 10.5H2.99998C1.62102 10.5 0.5 11.621 0.5 13V21C0.5 22.379 1.62102 23.5 2.99998 23.5H5.99998C7.08097 23.5 8.00497 22.81 8.35297 21.847C9.185 22.275 10.305 22.5 11 22.5H20.179C21.268 22.5 22.221 21.766 22.445 20.754C22.56 20.232 22.493 19.707 22.265 19.251C23.003 18.88 23.5 18.117 23.5 17.25C23.5 16.896 23.419 16.557 23.266 16.251C24.004 15.879 24.5 15.117 24.5 14.25ZM22.391 15.484C22.198 15.507 22.035 15.638 21.973 15.823C21.912 16.008 21.963 16.211 22.105 16.345C22.359 16.584 22.5 16.906 22.5 17.25C22.5 17.881 22.023 18.411 21.392 18.484C21.1991 18.507 21.036 18.638 20.9741 18.823C20.9131 19.008 20.9641 19.211 21.1061 19.345C21.4351 19.655 21.5671 20.09 21.4681 20.538C21.3451 21.096 20.8031 21.5 20.1791 21.5H11C10.188 21.5 8.82598 21.119 8.354 20.646C8.21098 20.504 7.99498 20.462 7.80898 20.538C7.622 20.615 7.49998 20.798 7.49998 21C7.49998 21.827 6.827 22.5 5.99998 22.5H2.99998C2.17297 22.5 1.49998 21.827 1.49998 21V13C1.49998 12.173 2.17297 11.5 2.99998 11.5H7.49998V12C7.49998 12.173 7.58998 12.334 7.73797 12.426C7.88398 12.514 8.06797 12.523 8.22397 12.447L9.22395 11.947C9.32497 11.897 9.40597 11.813 9.45397 11.71L12.454 5.20997C12.484 5.14397 12.5 5.07197 12.5 4.99997V1.77098C12.708 1.656 13.069 1.5 13.5 1.5C14.048 1.5 15.5 2.862 15.5 4.5C15.5 6.26002 14.542 8.79698 14.533 8.82202C14.475 8.97502 14.495 9.14803 14.588 9.28402C14.682 9.41901 14.836 9.50002 15 9.50002H21.881C22.715 9.50002 23.423 10.097 23.493 10.859C23.546 11.429 23.272 11.971 22.781 12.274C22.628 12.368 22.537 12.538 22.544 12.719C22.551 12.9 22.655 13.062 22.815 13.145C23.238 13.36 23.5 13.784 23.5 14.25C23.5 14.881 23.023 15.411 22.391 15.484Z" fill="black"/>
<path d="M7.99977 11.5C7.72377 11.5 7.49976 11.724 7.49976 12V21C7.49976 21.276 7.72377 21.5 7.99977 21.5C8.27577 21.5 8.49979 21.276 8.49979 21V12C8.49979 11.724 8.27577 11.5 7.99977 11.5Z" fill="black"/>
</g>
<defs>
<clipPath id="clip0_111_2676">
<rect width="24" height="24" fill="white" transform="translate(0.5)"/>
</clipPath>
</defs>
</svg>
